# File created by Blade
# Date/Time:  Thu Jan 22 19:34:22 2015
#---------------------------------------------------------
:version 1.10
:name HOM
:units
  mass 1.0
  length 1.000000
  angle deg
:documentation
     Acclaim Skeleton File
:root
   axis xyz
   order TX TY TZ RX RY RZ
   position 0.000000 0.000000 0.000000
   orientation 0 0 0
:bonedata
   begin
      id 1
      name RightUpLeg_dum
      direction -1.000000 0.000000 0.000000
      length 4.478084
      axis 0.0 0.0 0.0 xyz
   end
   begin
      id 2
      name LeftUpLeg_dum
      direction 1.000000 0.000000 0.000000
      length 4.478084
      axis 0.0 0.0 0.0 xyz
   end
   begin
      id 3
      name Spine_dum
      direction 0.000000 1.000000 0.000000
      length 6.068208
      axis 0.0 0.0 0.0 xyz
   end
   begin
      id 4
      name RightUpLeg
      direction 0.000000 -1.000000 0.000000
      length 16.405774
      axis 0.0 0.0 0.0 xyz
      dof rx ry rz
   end
   begin
      id 5
      name RightLeg
      direction 0.000000 -1.000000 0.000000
      length 14.644143
      axis 0.0 0.0 0.0 xyz
      dof rx ry rz
   end
   begin
      id 6
      name RightFoot
      direction 0.000000 -0.258819 0.965926
      length 5.806150
      axis 15.0 0.0 0.0 xyz
      dof rx ry rz
   end
   begin
      id 7
      name RightToeBase
      direction 0.000000 0.000000 1.000000
      length 2.952750
      axis 0.0 0.0 0.0 xyz
      dof rx ry rz
   end
   begin
      id 8
      name LeftUpLeg
      direction 0.000000 -1.000000 0.000000
      length 16.405774
      axis 0.0 0.0 0.0 xyz
      dof rx ry rz
   end
   begin
      id 9
      name LeftLeg
      direction 0.000000 -1.000000 0.000000
      length 14.644143
      axis 0.0 0.0 0.0 xyz
      dof rx ry rz
   end
   begin
      id 10
      name LeftFoot
      direction 0.000000 -0.258819 0.965926
      length 5.806150
      axis 15.0 0.0 0.0 xyz
      dof rx ry rz
   end
   begin
      id 11
      name LeftToeBase
      direction 0.000000 0.000000 1.000000
      length 2.952750
      axis 0.0 0.0 0.0 xyz
      dof rx ry rz
   end
   begin
      id 12
      name Spine
      direction 0.000000 1.000000 0.000000
      length 0.000000
      axis 0.0 0.0 0.0 xyz
      dof rx ry rz
   end
   begin
      id 13
      name Spine_dum1
      direction 0.000000 1.000000 0.000000
      length 10.013923
      axis 0.0 0.0 0.0 xyz
   end
   begin
      id 14
      name Spine_dum2
      direction 0.000000 1.000000 0.000000
      length 10.013923
      axis 0.0 0.0 0.0 xyz
   end
   begin
      id 15
      name Spine_dum3
      direction 0.000000 1.000000 0.000000
      length 15.777476
      axis 0.0 0.0 0.0 xyz
   end
   begin
      id 16
      name RightShoulder
      direction -1.000000 0.000000 0.000000
      length 7.190220
      axis 0.0 0.0 90.0 xyz
      dof rx ry rz
   end
   begin
      id 17
      name RightArm
      direction -1.000000 0.000000 0.000000
      length 10.177469
      axis 0.0 0.0 90.0 xyz
      dof rx ry rz
   end
   begin
      id 18
      name RightForeArm
      direction -1.000000 0.000000 0.000000
      length 8.392114
      axis 0.0 0.0 90.0 xyz
      dof ry rz rx
   end
   begin
      id 19
      name RightHand
      direction -1.000000 0.000000 0.000000
      length 0.000000
      axis 0.0 0.0 90.0 xyz
      dof rx ry rz
   end
   begin
      id 20
      name RightHand_dum1
      direction -1.000000 0.000000 0.000000
      length 3.937000
      axis 0.0 0.0 90.0 xyz
   end
   begin
      id 21
      name RightHand_dum2
      direction 0.000000 0.000000 0.000000
      length 0.000000
      axis 0.0 0.0 90.0 xyz
   end
   begin
      id 22
      name RightHandThumb1
      direction 0.000000 0.000000 1.000000
      length 3.937000
      axis 0.0 0.0 90.0 xyz
      dof rx rz ry
   end
   begin
      id 23
      name LeftShoulder
      direction 1.000000 0.000000 0.000000
      length 7.190220
      axis 0.0 0.0 -90.0 xyz
      dof rx ry rz
   end
   begin
      id 24
      name LeftArm
      direction 1.000000 0.000000 0.000000
      length 10.177469
      axis 0.0 0.0 -90.0 xyz
      dof rx ry rz
   end
   begin
      id 25
      name LeftForeArm
      direction 1.000000 0.000000 0.000000
      length 8.392114
      axis 0.0 0.0 -90.0 xyz
      dof ry rz rx
   end
   begin
      id 26
      name LeftHand
      direction 1.000000 0.000000 0.000000
      length 0.000000
      axis 0.0 0.0 -90.0 xyz
      dof rx ry rz
   end
   begin
      id 27
      name LeftHand_dum1
      direction 1.000000 0.000000 0.000000
      length 3.937000
      axis 0.0 0.0 -90.0 xyz
   end
   begin
      id 28
      name LeftHand_dum2
      direction 0.000000 0.000000 0.000000
      length 0.000000
      axis 0.0 0.0 -90.0 xyz
   end
   begin
      id 29
      name LeftHandThumb1
      direction 0.000000 0.000000 1.000000
      length 3.937000
      axis 0.0 0.0 -90.0 xyz
      dof rx rz ry
   end
   begin
      id 30
      name Head
      direction 0.000000 1.000000 0.000000
      length 4.527550
      axis 0.0 0.0 0.0 xyz
      dof rx ry rz
   end
:hierarchy
   begin
      root RightUpLeg_dum LeftUpLeg_dum Spine_dum
      RightUpLeg_dum RightUpLeg
      LeftUpLeg_dum LeftUpLeg
      Spine_dum Spine
      RightUpLeg RightLeg
      RightLeg RightFoot
      RightFoot RightToeBase
      LeftUpLeg LeftLeg
      LeftLeg LeftFoot
      LeftFoot LeftToeBase
      Spine Spine_dum1 Spine_dum2 Spine_dum3
      Spine_dum1 RightShoulder
      Spine_dum2 LeftShoulder
      Spine_dum3 Head
      RightShoulder RightArm
      RightArm RightForeArm
      RightForeArm RightHand
      RightHand RightHand_dum1 RightHand_dum2
      RightHand_dum2 RightHandThumb1
      LeftShoulder LeftArm
      LeftArm LeftForeArm
      LeftForeArm LeftHand
      LeftHand LeftHand_dum1 LeftHand_dum2
      LeftHand_dum2 LeftHandThumb1
   end

# File created by Blade
# Date/Time:  Thu Jan 22 19:34:15 2015
# Frame Rate: 120.000 fps
#------------------------------------------------------
:FULLY-SPECIFIED
:DEGREES
1
root -3.301903 33.005895 -1.429294 9.517329 -2.350102 2.490025
RightUpLeg -2.336015 -3.730737 -3.303985
RightLeg -1.378204 -0.000000 0.000000
RightFoot -12.032270 -3.596700 4.634435
RightToeBase 7.329177 -0.000000 -0.000000
LeftUpLeg -1.993614 2.767604 2.198921
LeftLeg 0.800252 -0.000000 -0.000000
LeftFoot -12.049610 3.370380 -18.340225
LeftToeBase 8.478750 -0.000000 -0.000000
Spine -10.676371 -2.470434 -1.201834
RightShoulder -20.116358 -12.409037 -24.211493
RightArm 20.505326 26.932550 40.903188
RightForeArm -12.072319 -0.000000 14.390201
RightHand 9.074644 -0.000000 7.605995
RightHandThumb1 -24.326973 -0.000000 -32.862282
LeftShoulder -24.477313 6.695400 29.534721
LeftArm 16.443014 -25.377950 -37.625436
LeftForeArm 21.484025 -0.000000 1.764377
LeftHand 0.650230 -0.000000 -10.791729
LeftHandThumb1 -26.253704 0.000000 33.147579
Head -2.590785 5.716412 2.018530
2
root -3.301124 33.005448 -1.426256 9.490776 -2.352524 2.490970
RightUpLeg -2.307442 -3.728401 -3.307925
RightLeg -1.372221 -0.000000 0.000000
RightFoot -12.039765 -3.594693 4.644925
RightToeBase 7.318550 -0.000000 -0.000000
LeftUpLeg -1.956988 2.767970 2.199294
LeftLeg 0.790755 -0.000000 -0.000000
LeftFoot -12.054986 3.362622 -18.354529
LeftToeBase 8.531614 -0.000000 -0.000000
Spine -10.655308 -2.455145 -1.206432
RightShoulder -20.133591 -12.420037 -24.208664
RightArm 20.501089 26.931151 40.920362
RightForeArm -12.050994 0.000000 14.382987
RightHand 9.092130 -0.000000 7.695866
RightHandThumb1 -24.326973 -0.000000 -32.862282
LeftShoulder -24.487727 6.718392 29.520127
LeftArm 16.476189 -25.406161 -37.645344
LeftForeArm 21.475325 -0.000000 1.754207
LeftHand 0.668733 -0.000000 -10.812240
LeftHandThumb1 -26.253704 0.000000 33.147579
Head -2.589112 5.713534 2.010408
3
root -3.299331 33.004894 -1.425315 9.476478 -2.351598 2.492399
RightUpLeg -2.298733 -3.719528 -3.311487
RightLeg -1.355261 -0.000000 0.000000
RightFoot -12.057793 -3.608530 4.660567
RightToeBase 7.305944 -0.000000 -0.000000
LeftUpLeg -1.948530 2.777376 2.198266
LeftLeg 0.807268 -0.000000 -0.000000
LeftFoot -12.062367 3.336385 -18.359676
LeftToeBase 8.529344 -0.000000 -0.000000
Spine -10.646111 -2.455954 -1.200878
RightShoulder -20.127348 -12.417843 -24.218759
RightArm 20.488433 26.927002 40.927507
RightForeArm -12.054060 -0.000000 14.367662
RightHand 9.134280 0.000000 7.577208
RightHandThumb1 -24.326973 -0.000000 -32.862282
LeftShoulder -24.492352 6.714443 29.511039
LeftArm 16.460113 -25.396372 -37.641676
LeftForeArm 21.475664 -0.000000 1.766032
LeftHand 0.645895 -0.000000 -10.836545
LeftHandThumb1 -26.253704 0.000000 33.147579
Head -2.581233 5.715319 1.987390
4
root -3.297816 33.004346 -1.423452 9.456372 -2.351471 2.494730
RightUpLeg -2.277545 -3.718271 -3.316800
RightLeg -1.350522 -0.000000 0.000000
RightFoot -12.071893 -3.613464 4.651287
RightToeBase 7.367165 -0.000000 -0.000000
LeftUpLeg -1.929115 2.785156 2.196339
LeftLeg 0.810289 -0.000000 -0.000000
LeftFoot -12.078664 3.340377 -18.312733
LeftToeBase 8.623116 -0.000000 -0.000000
Spine -10.631732 -2.460553 -1.197547
RightShoulder -20.116639 -12.419884 -24.226935
RightArm 20.466733 26.919482 40.928940
RightForeArm -12.019931 -0.000000 14.377755
RightHand 9.117008 -0.000000 7.638024
RightHandThumb1 -24.326973 -0.000000 -32.862282
LeftShoulder -24.498895 6.709216 29.504211
LeftArm 16.440859 -25.387343 -37.632964
LeftForeArm 21.455168 -0.000000 1.776157
LeftHand 0.607493 -0.000000 -10.934452
LeftHandThumb1 -26.253704 0.000000 33.147579
Head -2.574960 5.724706 1.975510
5
root -3.295409 33.003756 -1.422450 9.441510 -2.350905 2.498783
RightUpLeg -2.267003 -3.724665 -3.326756
RightLeg -1.337574 -0.000000 0.000000
RightFoot -12.075191 -3.601517 4.654688
RightToeBase 7.305423 -0.000000 -0.000000
LeftUpLeg -1.915673 2.772429 2.189395
LeftLeg 0.814177 -0.000000 -0.000000
LeftFoot -12.083901 3.356459 -18.287063
LeftToeBase 8.602973 -0.000000 -0.000000
Spine -10.619598 -2.447064 -1.199560
RightShoulder -20.126568 -12.432722 -24.229563
RightArm 20.454928 26.920771 40.945185
RightForeArm -12.040468 -0.000000 14.381983
RightHand 9.133132 -0.000000 7.650930
RightHandThumb1 -24.326973 -0.000000 -32.862282
LeftShoulder -24.498463 6.697272 29.512249
LeftArm 16.446786 -25.418228 -37.669439
LeftForeArm 21.480243 -0.000000 1.765082
LeftHand 0.627564 -0.000000 -10.961219
LeftHandThumb1 -26.253704 0.000000 33.147579
Head -2.577630 5.715164 1.956234
6
root -3.294132 33.003595 -1.421989 9.427589 -2.359761 2.496049
RightUpLeg -2.264010 -3.705912 -3.327459
RightLeg -1.315434 -0.000000 0.000000
RightFoot -12.089685 -3.614610 4.648963
RightToeBase 7.325979 -0.000000 -0.000000
LeftUpLeg -1.904789 2.780290 2.190198
LeftLeg 0.828475 -0.000000 -0.000000
LeftFoot -12.095557 3.349963 -18.283221
LeftToeBase 8.589152 -0.000000 -0.000000
Spine -10.607672 -2.434097 -1.196113
RightShoulder -20.128403 -12.441154 -24.215811
RightArm 20.468996 26.948025 40.950456
RightForeArm -12.020551 -0.000000 14.376322
RightHand 9.094522 -0.000000 7.686125
RightHandThumb1 -24.326973 -0.000000 -32.862282
LeftShoulder -24.500903 6.716349 29.502660
LeftArm 16.455523 -25.417246 -37.684027
LeftForeArm 21.478685 -0.000000 1.763247
LeftHand 0.627652 -0.000000 -11.013099
LeftHandThumb1 -26.253704 0.000000 33.147579
Head -2.570456 5.717803 1.951860
7
root -3.292445 33.003281 -1.420765 9.414812 -2.350168 2.498470
RightUpLeg -2.247583 -3.718173 -3.332487
RightLeg -1.315605 -0.000000 0.000000
RightFoot -12.094125 -3.616430 4.644744
RightToeBase 7.296343 -0.000000 -0.000000
LeftUpLeg -1.895592 2.765632 2.186530
LeftLeg 0.836547 -0.000000 -0.000000
LeftFoot -12.114609 3.360196 -18.262618
LeftToeBase 8.667633 -0.000000 -0.000000
Spine -10.601792 -2.436060 -1.195622
RightShoulder -20.131547 -12.439839 -24.215110
RightArm 20.459804 26.931673 40.945249
RightForeArm -12.030215 0.000000 14.372526
RightHand 9.098860 -0.000000 7.703283
RightHandThumb1 -24.326973 -0.000000 -32.862282
LeftShoulder -24.495622 6.720392 29.518986
LeftArm 16.454288 -25.425077 -37.723510
LeftForeArm 21.508275 0.000000 1.753354
LeftHand 0.644321 0.000000 -11.045301
LeftHandThumb1 -26.253704 0.000000 33.147579
Head -2.563697 5.708373 1.945770
8
root -3.291148 33.003109 -1.420274 9.398878 -2.363559 2.500192
RightUpLeg -2.240015 -3.696703 -3.339220
RightLeg -1.300720 -0.000000 0.000000
RightFoot -12.106944 -3.624731 4.660740
RightToeBase 7.313923 -0.000000 -0.000000
LeftUpLeg -1.881044 2.767255 2.180098
LeftLeg 0.853701 -0.000000 -0.000000
LeftFoot -12.111180 3.333432 -18.353167
LeftToeBase 8.523896 -0.000000 -0.000000
Spine -10.587665 -2.418455 -1.196643
RightShoulder -20.132463 -12.453155 -24.213667
RightArm 20.461830 26.939657 40.956474
RightForeArm -12.028103 -0.000000 14.380341
RightHand 9.093350 -0.000000 7.668686
RightHandThumb1 -24.326973 -0.000000 -32.862282
LeftShoulder -24.489614 6.726927 29.518204
LeftArm 16.431985 -25.363736 -37.720278
LeftForeArm 21.471407 -0.000000 1.756535
LeftHand 0.672439 -0.000000 -11.043225
LeftHandThumb1 -26.253704 0.000000 33.147579
Head -2.558554 5.718126 1.933400
9
root -3.289268 33.002659 -1.419086 9.379455 -2.361806 2.504705
RightUpLeg -2.224063 -3.711163 -3.348361
RightLeg -1.289224 -0.000000 0.000000
RightFoot -12.118259 -3.608540 4.663624
RightToeBase 7.276049 -0.000000 -0.000000
LeftUpLeg -1.861733 2.767293 2.174613
LeftLeg 0.850426 -0.000000 -0.000000
LeftFoot -12.132437 3.367151 -18.242462
LeftToeBase 8.674495 -0.000000 -0.000000
Spine -10.569548 -2.411311 -1.200713
RightShoulder -20.133852 -12.456108 -24.212914
RightArm 20.448693 26.929722 40.952012
RightForeArm -12.035396 -0.000000 14.379686
RightHand 9.114156 -0.000000 7.683909
RightHandThumb1 -24.326973 -0.000000 -32.862282
LeftShoulder -24.491275 6.725499 29.525938
LeftArm 16.436937 -25.342786 -37.742626
LeftForeArm 21.465364 0.000000 1.744162
LeftHand 0.701617 0.000000 -11.050227
LeftHandThumb1 -26.253704 0.000000 33.147579
Head -2.562191 5.720506 1.932276
10
root -3.287972 33.002038 -1.419031 9.367712 -2.361299 2.498390
RightUpLeg -2.215055 -3.702858 -3.345412
RightLeg -1.282534 -0.000000 0.000000
RightFoot -12.128841 -3.619316 4.664845
RightToeBase 7.357449 -0.000000 -0.000000
LeftUpLeg -1.857455 2.794446 2.171027
LeftLeg 0.852182 -0.000000 -0.000000
LeftFoot -12.150469 3.345030 -18.361839
LeftToeBase 8.736433 -0.000000 -0.000000
Spine -10.559786 -2.408150 -1.186187
RightShoulder -20.133289 -12.458467 -24.224943
RightArm 20.452323 26.934523 40.969539
RightForeArm -12.055634 0.000000 14.384984
RightHand 9.101076 -0.000000 7.704129
RightHandThumb1 -24.326973 -0.000000 -32.862282
LeftShoulder -24.489758 6.727740 29.526774
LeftArm 16.432077 -25.346787 -37.759220
LeftForeArm 21.448857 -0.000000 1.720472
LeftHand 0.685286 0.000000 -11.027843
LeftHandThumb1 -26.253704 0.000000 33.147579
Head -2.560215 5.728151 1.916144
11
root -3.286898 33.002078 -1.418644 9.357385 -2.362845 2.502894
RightUpLeg -2.208535 -3.724173 -3.350889
RightLeg -1.276576 -0.000000 0.000000
RightFoot -12.126620 -3.595872 4.662709
RightToeBase 7.321142 -0.000000 -0.000000
LeftUpLeg -1.851540 2.748648 2.173081
LeftLeg 0.876976 -0.000000 -0.000000
LeftFoot -12.154916 3.377421 -18.259310
LeftToeBase 8.623830 -0.000000 -0.000000
Spine -10.552300 -2.412471 -1.191690
RightShoulder -20.132886 -12.472929 -24.220086
RightArm 20.472924 26.923620 40.984351
RightForeArm -12.095153 -0.000000 14.369778
RightHand 9.124931 -0.000000 7.621966
RightHandThumb1 -24.326973 -0.000000 -32.862282
LeftShoulder -24.492556 6.730467 29.533798
LeftArm 16.419085 -25.359141 -37.773559
LeftForeArm 21.439173 -0.000000 1.722028
LeftHand 0.679761 -0.000000 -11.045270
LeftHandThumb1 -26.253704 0.000000 33.147579
Head -2.556914 5.738377 1.916792
12
root -3.285578 33.002022 -1.418067 9.345539 -2.366108 2.504848
RightUpLeg -2.196290 -3.727205 -3.356321
RightLeg -1.275964 -0.000000 0.000000
RightFoot -12.135148 -3.590853 4.651369
RightToeBase 7.355630 -0.000000 -0.000000
LeftUpLeg -1.838289 2.744493 2.169111
LeftLeg 0.878053 -0.000000 -0.000000
LeftFoot -12.153145 3.383530 -18.253493
LeftToeBase 8.632131 -0.000000 -0.000000
Spine -10.540958 -2.407419 -1.192170
RightShoulder -20.137330 -12.464972 -24.226320
RightArm 20.473092 26.914158 40.993632
RightForeArm -12.089201 -0.000000 14.369961
RightHand 9.111828 -0.000000 7.631392
RightHandThumb1 -24.326973 -0.000000 -32.862282
LeftShoulder -24.500601 6.721247 29.536278
LeftArm 16.422350 -25.395588 -37.795909
LeftForeArm 21.465336 -0.000000 1.716465
LeftHand 0.676183 -0.000000 -11.054849
LeftHandThumb1 -26.253704 0.000000 33.147579
Head -2.564794 5.739402 1.912038
